<svg xmlns="http://www.w3.org/2000/svg" xmlns:xlink="http://www.w3.org/1999/xlink" viewBox="0 0 440 440"><defs><path id="a" d="M-41.9-1423.4h628.4V681.8H-41.9z"/></defs><clipPath id="b"><use xlink:href="#a" overflow="visible"/></clipPath><g clip-path="url(#b)"><defs><path id="c" d="M2.5 220c0 119.8 97.1 216.9 216.9 216.9S436.3 339.8 436.3 220 339.1 3.1 219.3 3.1C99.6 3.1 2.5 100.2 2.5 220"/></defs><clipPath id="d"><use xlink:href="#c" overflow="visible"/></clipPath><linearGradient id="e" gradientUnits="userSpaceOnUse" x1="-780.194" y1="83.225" x2="-779.194" y2="83.225" gradientTransform="translate(338409.625 -35878.773) scale(433.7473)"><stop offset="0" stop-color="red"/><stop offset="0" stop-color="red"/><stop offset=".008" stop-color="#fd020e"/><stop offset=".033" stop-color="#f60837"/><stop offset=".06" stop-color="#f00d5d"/><stop offset=".091" stop-color="#eb117d"/><stop offset=".124" stop-color="#e71599"/><stop offset=".162" stop-color="#e318af"/><stop offset=".206" stop-color="#e01abf"/><stop offset=".26" stop-color="#de1ccb"/><stop offset=".337" stop-color="#dd1dd2"/><stop offset=".548" stop-color="#dd1dd4"/><stop offset="1" stop-color="#df28d6"/></linearGradient><path clip-path="url(#d)" fill="url(#e)" d="M2.5 3.1h433.7v433.7H2.5z"/><defs><path id="f" d="M2.5 220c0 119.8 97.1 216.9 216.9 216.9S436.3 339.8 436.3 220 339.1 3.1 219.3 3.1C99.6 3.1 2.5 100.2 2.5 220"/></defs><clipPath id="g"><use xlink:href="#f" overflow="visible"/></clipPath><path d="M436.2 220c0 119.8-97.1 216.9-216.9 216.9S2.5 339.8 2.5 220 99.6 3.1 219.3 3.1 436.2 100.2 436.2 220" clip-path="url(#g)" fill="#5700ff"/><g><defs><path id="h" d="M2.5 220c0 119.8 97.1 216.9 216.9 216.9S436.3 339.8 436.3 220 339.1 3.1 219.3 3.1C99.6 3.1 2.5 100.2 2.5 220"/></defs><clipPath id="i"><use xlink:href="#h" overflow="visible"/></clipPath><path d="M436.2 220c0 119.8-97.1 216.9-216.9 216.9S2.5 339.8 2.5 220 99.6 3.1 219.3 3.1 436.2 100.2 436.2 220" clip-path="url(#i)" fill="#f200f2"/></g><g><defs><path id="j" d="M2.5 220c0 119.8 97.1 216.9 216.9 216.9S436.3 339.8 436.3 220 339.1 3.1 219.3 3.1C99.6 3.1 2.5 100.2 2.5 220"/></defs><clipPath id="k"><use xlink:href="#j" overflow="visible"/></clipPath><path d="M232.7-1423.4h-219l-55.2 310c-2.5 14.2 8.4 27.2 22.8 27.2h11c14.4 0 25.3 13 22.8 27.2l-26.3 148c-2.5 14.3 8.5 27.4 23 27.4h28c14.5 0 25.5 13.1 23 27.4L40.4-731.3c-1 5.4-5.6 9.3-11.1 9.3s-10.2 3.9-11.1 9.3l-30.7 172.3c-2 11 6.5 21 17.6 21h54c11.1 0 19.6 10.1 17.6 21L69-454.9c-2.9 16.2 9.5 31 26 31s28.8 14.8 26 31v.1c-2.2 12.2 7.2 23.4 19.6 23.4h21c12.4 0 21.7 11.2 19.6 23.4l-12.4 69.7c-1.2 6.6 3.9 12.7 10.6 12.7s11.8 6.1 10.6 12.7l-3.5 19.8c-2 11.5 6.8 22 18.4 22 11.7 0 20.5 10.5 18.4 22l-5 28.1c-1.3 7.3-7.7 12.7-15.1 12.7-7.5 0-13.8 5.3-15.1 12.7l-45 252.8c-1.4 8-8.4 13.9-16.5 13.9h-12c-8.1 0-15.1 5.8-16.5 13.8L75.4 273.4c-1.8 10.3 6.1 19.7 16.5 19.7 10.5 0 18.4 9.4 16.5 19.7l-35.5 200c-1.4 7.8 4.6 15 12.6 15s14 7.2 12.6 15l-24.7 139h219l24.7-139c1.4-7.8-4.6-15-12.6-15s-14-7.2-12.6-15l35.6-199.9c1.8-10.3-6.1-19.7-16.5-19.7-10.5 0-18.4-9.4-16.5-19.7L317 146.8c1.4-8 8.4-13.8 16.5-13.8h12c8.1 0 15.1-5.8 16.5-13.9l45-252.8c1.3-7.3 7.7-12.7 15.1-12.7 7.4 0 13.8-5.3 15.1-12.7l5-28.1c2-11.5-6.8-22-18.4-22-11.6 0-20.5-10.5-18.4-22l3.5-19.8c1.2-6.6-3.9-12.7-10.6-12.7s-11.8-6.1-10.6-12.7l12.4-69.7c2.2-12.2-7.2-23.4-19.6-23.4h-21c-12.4 0-21.7-11.2-19.6-23.4v-.1c2.9-16.2-9.5-31-26-31-16.4 0-28.8-14.8-26-31l9.6-53.8c2-11-6.5-21-17.6-21h-54c-11.1 0-19.6-10.1-17.6-21l28.9-162c1-5.4 5.6-9.3 11.1-9.3s10.2-3.9 11.1-9.3l29.5-165.9c2.5-14.3-8.5-27.4-23-27.4h-28c-14.5 0-25.5-13.1-23-27.4l19-107c2.5-14.2-8.4-27.2-22.8-27.2h-11c-14.4 0-25.3-13-22.8-27.2l55.4-309.9z" clip-path="url(#k)" fill="#1f08fc"/></g><g><defs><path id="l" d="M2.5 220c0 119.8 97.1 216.9 216.9 216.9S436.3 339.8 436.3 220 339.1 3.1 219.3 3.1C99.6 3.1 2.5 100.2 2.5 220"/></defs><clipPath id="m"><use xlink:href="#l" overflow="visible"/></clipPath><path d="M131-9.3l-28.9 176c-1.4 8-8.4 13.9-16.5 13.9h-12c-8.1 0-15.1 5.8-16.5 13.9L34.5 321c-1.8 10.3 6.1 19.7 16.5 19.7 10.5 0 18.4 9.4 16.5 19.7l-13.6 60.3" clip-path="url(#m)" fill="none" stroke="#ffe3fe" stroke-width="20" stroke-miterlimit="10"/></g><g><defs><path id="n" d="M2.5 220c0 119.8 97.1 216.9 216.9 216.9S436.3 339.8 436.3 220 339.1 3.1 219.3 3.1C99.6 3.1 2.5 100.2 2.5 220"/></defs><clipPath id="o"><use xlink:href="#n" overflow="visible"/></clipPath><path d="M345.6 558.8l39-199.9c1.8-10.3-6.1-19.7-16.5-19.7-10.5 0-18.4-9.4-16.5-19.7l22.5-126.6c1.4-8 8.4-13.9 16.5-13.9h12c8.1 0 15.1-5.8 16.5-13.9l18.8-118.6" clip-path="url(#o)" fill="none" stroke="#daff00" stroke-width="11" stroke-miterlimit="10"/></g></g><g><defs><path id="p" d="M-41.9-1423.4h628.4V681.8H-41.9z"/></defs><clipPath id="q"><use xlink:href="#p" overflow="visible"/></clipPath><g clip-path="url(#q)"><defs><path id="r" d="M-41.9-1423.4h628.4V681.8H-41.9z"/></defs><clipPath id="s"><use xlink:href="#r" overflow="visible"/></clipPath><g clip-path="url(#s)"><defs><path id="t" d="M183.5 32.6h150.4v296.9H183.5z"/></defs><clipPath id="u"><use xlink:href="#t" overflow="visible"/></clipPath><path d="M333 308.8l.9-149.7h-69.7c27.5-7.2 47.9-32.3 47.9-62.1 0-35.5-28.8-64.3-64.3-64.3S183.5 61.5 183.5 97c0 31 21.9 56.8 51 62.9l34.1 154.2h-49.9v15.6h112.1l-1.1-10.1 3.3-10.8z" clip-path="url(#u)" fill="#ab97ff"/></g></g></g><g><defs><path id="v" d="M-41.9-1423.4h628.4V681.8H-41.9z"/></defs><clipPath id="w"><use xlink:href="#v" overflow="visible"/></clipPath><g clip-path="url(#w)"><defs><path id="x" d="M134.1 128.9c0 31 21.9 56.8 51 62.9L219.2 346h-49.9v15.6H293V346h-8.6V191.1h-69.8c27.5-7.2 47.9-32.3 47.9-62.1 0-35.5-28.8-64.3-64.3-64.3s-64.1 28.7-64.1 64.2"/></defs><clipPath id="y"><use xlink:href="#x" overflow="visible"/></clipPath><linearGradient id="z" gradientUnits="userSpaceOnUse" x1="-777.245" y1="84.509" x2="-776.245" y2="84.509" gradientTransform="translate(123687.516 -13220.571) scale(158.9633)"><stop offset="0" stop-color="#ffea00"/><stop offset=".328" stop-color="#daff00"/><stop offset="1" stop-color="#fff"/></linearGradient><path clip-path="url(#y)" fill="url(#z)" d="M134.1 64.7h159v296.9h-159z"/></g></g></svg>