<svg xmlns="http://www.w3.org/2000/svg" xmlns:xlink="http://www.w3.org/1999/xlink" viewBox="0 0 435 435"><defs><style>.cls-1,.cls-6,.cls-7,.cls-9{fill:none;}.cls-2{isolation:isolate;}.cls-3{clip-path:url(#clip-path);}.cls-4{fill:url(#linear-gradient);}.cls-5,.cls-8{mix-blend-mode:color-dodge;}.cls-6{stroke:#8c71de;}.cls-6,.cls-7,.cls-8,.cls-9{stroke-miterlimit:10;}.cls-6,.cls-8,.cls-9{stroke-width:20px;}.cls-7{stroke:#f921e4;stroke-width:11.75px;}.cls-8{fill:#ff87bb;opacity:0.64;stroke:url(#linear-gradient-2);}.cls-9{stroke:#ff87bb;}</style><clipPath id="clip-path"><circle id="SVGID" class="cls-1" cx="217.5" cy="217.5" r="216.87"/></clipPath><linearGradient id="linear-gradient" x1="0.63" y1="217.5" x2="434.37" y2="217.5" gradientUnits="userSpaceOnUse"><stop offset="0.02" stop-color="#33faff"/><stop offset="1" stop-color="#42f683"/></linearGradient><linearGradient id="linear-gradient-2" x1="106.31" y1="242.23" x2="421.97" y2="242.23" gradientUnits="userSpaceOnUse"><stop offset="0.02" stop-color="#33faff"/><stop offset="1" stop-color="#78f6af"/></linearGradient></defs><g class="cls-2"><g id="Layer_2" data-name="Layer 2"><g class="cls-3"><circle class="cls-4" cx="217.5" cy="217.5" r="216.87"/><g class="cls-5"><polygon class="cls-6" points="351.33 -86.46 448.14 12.51 585.5 -10.99 520.19 111.51 584.5 233.89 447.33 210.62 349.71 309.76 330.25 172.88 205.61 111.77 330.75 50.45 351.33 -86.46"/><polyline class="cls-6" points="331.93 175.53 356.71 141.16 253.79 90.05"/><polyline class="cls-6" points="347.15 -32.39 430.15 47.56 448.14 12.51"/><line class="cls-6" x1="569.49" y1="26.26" x2="431.69" y2="52.34"/><path class="cls-6" d="M380.7,277.09c-1.16-3.58-18.38-138.1-18.38-138.1"/></g><polygon class="cls-7" points="212.24 70.97 255.04 161.99 354.9 178.65 280.85 247.11 295.76 346.43 207.2 297.72 116.55 342.44 135.87 243.88 64.94 172.2 165.44 159.99 212.24 70.97"/><polyline class="cls-7" points="135.66 251.47 167.41 227.27 109 167.63"/><polyline class="cls-7" points="190.07 113.47 227.94 188.14 251.65 165.38"/><line class="cls-7" x1="328.63" y1="206.78" x2="227.85" y2="191.78"/><path class="cls-7" d="M151.42,326.26c.06-2.73,20.36-99.14,20.36-99.14"/><line class="cls-8" x1="114.12" y1="430.09" x2="414.16" y2="54.37"/><g class="cls-5"><polyline class="cls-9" points="116.72 59.44 46.51 59.44 46.51 458.44"/><path class="cls-9" d="M116.72,175.47c29.05,0,52.59-26,52.59-58s-23.54-58-52.59-58"/><line class="cls-9" x1="46.51" y1="175.47" x2="116.72" y2="175.47"/><path class="cls-9" d="M104.72,175.47c14.84,0,24.09,5.14,33.87,14.32s247.3,228.55,247.3,228.55"/><path class="cls-9" d="M44.53,169.47c16.49,13.15,313.16,292,313.16,292"/></g><circle id="SVGID-2" data-name="SVGID" class="cls-1" cx="217.5" cy="217.5" r="216.87"/></g></g></g></svg>