<svg xmlns="http://www.w3.org/2000/svg" xmlns:xlink="http://www.w3.org/1999/xlink" viewBox="0 0 734.43 435"><defs><style>.cls-1,.cls-10,.cls-6,.cls-8{fill:none;}.cls-2{isolation:isolate;}.cls-3{clip-path:url(#clip-path);}.cls-4{fill:#04f7b0;}.cls-5{fill:#8c71de;}.cls-5,.cls-6{mix-blend-mode:hard-light;}.cls-6{stroke:#f921e4;stroke-width:12.12px;}.cls-10,.cls-6,.cls-8,.cls-9{stroke-miterlimit:10;}.cls-7,.cls-9{mix-blend-mode:color-dodge;}.cls-8{stroke:#8c71de;stroke-width:17.31px;}.cls-9{fill:#ff87bb;opacity:0.64;stroke:url(#linear-gradient);}.cls-10,.cls-9{stroke-width:20.63px;}.cls-10{stroke:#ff87bb;}</style><clipPath id="clip-path"><polygon class="cls-1" points="730.87 168.35 693.75 154.85 706.2 143.69 631.47 116.51 616.69 27.82 616.56 27.93 616.54 27.82 598.6 42.6 592.02 3.16 460.79 111.23 449.81 45.39 449.69 45.49 449.67 45.39 431.69 60 425.14 20.72 299.3 122.97 282.94 62.96 282.82 63.06 282.79 62.96 268.49 75.78 258.27 38.29 3.56 266.65 40.58 280.11 28.08 291.31 104.5 319.11 126.52 407.18 141.39 393.24 151.04 431.84 151.16 431.73 151.19 431.84 276.12 314.72 293.4 389.61 309.07 375.9 317.92 414.28 318.04 414.17 318.07 414.28 440.66 307.01 451.5 372.04 469.25 356.12 476.02 396.71 476.14 396.6 476.16 396.71 730.87 168.35"/></clipPath><linearGradient id="linear-gradient" x1="346.5" y1="313.85" x2="760.18" y2="313.85" gradientUnits="userSpaceOnUse"><stop offset="0.02" stop-color="#33faff"/><stop offset="1" stop-color="#78f6af"/></linearGradient></defs><g class="cls-2"><g id="Layer_2" data-name="Layer 2"><g class="cls-3"><polygon points="730.45 167.98 693.33 154.48 705.78 143.31 631.05 116.14 616.27 27.45 598.2 42.34 591.61 2.78 460.37 110.86 449.4 45.02 431.29 59.73 424.73 20.35 298.88 122.59 282.52 62.58 268.1 75.51 257.85 37.91 3.14 266.27 40.27 279.77 27.81 290.94 104.07 318.67 126.1 406.8 141.09 392.75 150.77 431.47 275.7 314.35 292.98 389.24 308.77 375.42 317.65 413.9 440.24 306.64 451.08 371.67 468.96 355.63 475.74 396.34 730.45 167.98"/><polygon class="cls-4" points="730.87 168.35 476.16 396.71 458.6 291.31 318.07 414.28 291.72 300.1 151.19 431.84 124.84 326.45 28.23 291.31 282.94 62.96 309.29 159.57 449.81 45.39 467.38 150.79 616.69 27.82 634.26 133.22 730.87 168.35"/><polygon class="cls-5" points="706.2 143.69 451.5 372.04 433.93 266.65 293.4 389.61 267.05 275.43 126.52 407.18 100.17 301.78 3.56 266.65 258.27 38.29 284.62 134.9 425.14 20.72 442.71 126.12 592.02 3.16 609.59 108.55 706.2 143.69"/><polygon class="cls-6" points="169.86 222.92 202.62 206.75 207.87 170.61 233.37 196.76 269.37 190.59 252.37 222.92 269.37 255.25 233.37 249.08 207.87 275.24 202.62 239.09 169.86 222.92"/><polygon class="cls-6" points="473.58 222.92 506.34 206.75 511.59 170.61 537.09 196.76 573.09 190.59 556.09 222.92 573.09 255.25 537.09 249.08 511.59 275.24 506.34 239.09 473.58 222.92"/><polygon class="cls-6" points="321.72 222.92 354.48 206.75 359.73 170.61 385.23 196.76 421.23 190.59 404.23 222.92 421.23 255.25 385.23 249.08 359.73 275.24 354.48 239.09 321.72 222.92"/><g class="cls-7"><polygon class="cls-8" points="563.85 35.72 589.16 153.78 699.46 198.75 596.52 260.59 587.64 381.36 498.7 301.51 382.93 331.18 430.9 220 368.23 117.57 486.81 128.7 563.85 35.72"/><polyline class="cls-8" points="430.92 222.74 464.49 208.33 413.03 123.27"/><polyline class="cls-8" points="536.29 74.24 560.22 171.79 589.16 153.78"/><line class="cls-8" x1="670.94" y1="219.31" x2="559.17" y2="176.07"/><path class="cls-8" d="M420.22,320.87c.78-3.21,49.32-111.61,49.32-111.61"/></g><line class="cls-9" x1="353.47" y1="497.07" x2="753.21" y2="130.64"/><g class="cls-7"><polyline class="cls-10" points="244.15 134.27 171.72 134.27 171.72 545.85"/><path class="cls-10" d="M244.15,254c30,0,54.24-26.79,54.24-59.85s-24.28-59.84-54.24-59.84"/><line class="cls-10" x1="171.72" y1="253.96" x2="244.15" y2="253.96"/><path class="cls-10" d="M231.77,254c15.3,0,24.84,5.3,34.93,14.77S521.8,504.48,521.8,504.48"/><path class="cls-10" d="M169.68,247.77c17,13.57,323,301.23,323,301.23"/><path class="cls-10" d="M443.92,307.8C460.93,321.37,767,609,767,609"/></g></g></g></g></svg>